<svg xmlns="http://www.w3.org/2000/svg" xmlns:xlink="http://www.w3.org/1999/xlink" width="500" zoomAndPan="magnify" viewBox="0 0 375 374.999991" height="500" preserveAspectRatio="xMidYMid meet" version="1.0"><defs><clipPath id="69d18c6108"><path d="M 109.621094 127 L 375 127 L 375 374.996094 L 109.621094 374.996094 Z M 109.621094 127 " clip-rule="nonzero"/></clipPath><clipPath id="c9e5641a68"><path d="M 0 0 L 265.5 0 L 265.5 248 L 0 248 Z M 0 0 " clip-rule="nonzero"/></clipPath></defs><rect x="-37.5" width="450" fill="#ffffff" y="-37.499999" height="449.999989" fill-opacity="1"/><rect x="-37.5" width="450" fill="#15141a" y="-37.499999" height="449.999989" fill-opacity="1"/><g clip-path="url(#69d18c6108)"><path fill="#c9c7c7" d="M 109.621094 374.660156 L 109.621094 127.324219 L 201.085938 127.324219 L 201.085938 189.300781 L 211.105469 200.46875 L 266.351562 127.324219 L 374.992188 127.324219 L 272.222656 264.589844 L 372.273438 374.660156 L 267.355469 374.660156 L 201.085938 301.519531 L 201.085938 374.660156 Z M 109.621094 374.660156 " fill-opacity="1" fill-rule="nonzero"/></g><g clip-path="url(#c9e5641a68)"><path fill="#40c38a" d="M 0 0.332031 L 0 247.671875 L 91.460938 247.671875 L 91.460938 185.691406 L 101.480469 174.527344 L 156.730469 247.671875 L 265.371094 247.671875 L 162.601562 110.402344 L 262.652344 0.332031 L 157.734375 0.332031 L 91.460938 73.476562 L 91.460938 0.332031 Z M 0 0.332031 " fill-opacity="1" fill-rule="nonzero"/></g></svg>