<svg xmlns="http://www.w3.org/2000/svg" width="340" height="481" fill="none"><path fill="#B36E57" d="M43.28 260.477s-16.318 1.402-17.79 30.82C24.022 320.716 44.353 395.494 97.15 445.52c48.037 45.522 181.842 54.298 225.915-22.912C399.399 288.881 58.155 129.869 46.907 120.252c-8.046-6.877-22.884-8.198-32.136.171-7.319 6.622-8.726 17.155-5.788 28.08 3.141 11.688 16.774 25.149 32.41 44.992"/><path fill="#F1F2F4" d="M262.496 122.307v-15.781a3.945 3.945 0 0 0-3.945-3.945V19.729C258.551 8.85 249.701 0 238.824 0H57.337C46.461 0 37.61 8.85 37.61 19.729v378.753c0 10.878 8.85 19.728 19.727 19.728h181.487c10.877 0 19.727-8.85 19.727-19.728V205.159a3.945 3.945 0 0 0 3.945-3.945v-39.453a3.946 3.946 0 0 0-3.945-3.946v-31.562a3.946 3.946 0 0 0 3.945-3.946Z"/><path fill="#fff" d="M57.787 4.708c-8.683 0-15.722 7.04-15.722 15.724v377.346c0 8.684 7.039 15.725 15.722 15.725H238.6c8.684 0 15.723-7.041 15.723-15.725V20.432c0-8.683-7.039-15.724-15.723-15.724H57.787Z"/><path fill="#B36E57" d="M42.913 337.569s-25.03 1.332-31.628 25.524c-10.333 37.888 33.553 51.061 44.662 28.846 13.776-27.555-20.669-41.333-20.669-41.333l7.635 4.08v-17.117Z"/><path fill="#B36E57" d="M38.946 289.325s-27.527 1.466-34.783 28.07C-7.2 359.062 41.06 373.548 53.278 349.118c15.152-30.302-22.73-45.454-22.73-45.454l8.398 4.486v-18.825Z"/><path stroke="#683026" stroke-linecap="round" stroke-miterlimit="10" stroke-width="1.187" d="m30.55 303.664 7.837 3.379"/><path fill="#B36E57" d="M38.946 223.593s-29.932 1.466-37.187 28.07c-11.364 41.667 39.303 56.153 51.52 31.723 15.152-30.302-22.729-45.454-22.729-45.454l8.396 4.486v-18.825Z"/><path stroke="#683026" stroke-linecap="round" stroke-miterlimit="10" stroke-width="1.187" d="M23.13 294.618c5.246 1.531 10.73 1.749 15.673.561"/><path fill="#C7806D" d="M2.786 248.46s4.286-5.483 8.586-2.347c1.668 1.219 1.897 3.633.739 5.344-10.87 16.047-.101 36.833-.101 36.833S1.56 280.8.11 264.732c-.763-8.467 2.676-16.272 2.676-16.272ZM5.186 314.179s4.291-4.214 8.591-1.077c1.668 1.218 1.899 3.633.74 5.342-10.87 16.048-.13 36.253-.13 36.253s-10.421-6.909-11.87-22.976c-.763-8.468 2.669-17.542 2.669-17.542Z"/><path stroke="#683026" stroke-linecap="round" stroke-miterlimit="10" stroke-width="1.187" d="M14.388 355.346c9.405 7.173 22.38 8.414 31.336 2.795M30.552 237.067l7.91 3.794"/><path fill="#B36E57" d="M306.43 167.291c-.647-17.097-13.982-25.093-25.584-23.451-11.275 1.594-22.238 13.797-22.238 25.248v34.861c0 20.627 4.811 32.118 4.811 50.748 0 10.508-28.999 67.926-28.999 117.371 0 29.937 11.68 52.046 21.043 58.47 27.985 19.203 55.77 8.917 67.601-7.93 11.831-16.846 18.799-56.817 16.499-88.75-2.889-40.115-14.831-81.639-23.566-115.902-5.073-19.903-9.064-37.359-9.567-50.665Z"/><path fill="#C7806D" d="M281.606 175.336c4.028 12.661 20.849 21.359 27.637 13.481-1.547-7.982-2.576-15.225-2.815-21.526-.647-17.097-13.98-25.093-25.582-23.451-.153.021-.305.064-.456.091-2.13 9.069-1.909 21.587 1.216 31.405Z"/><path fill="#FF9500" fill-rule="evenodd" d="M150 224c12.426 0 22.5-10.073 22.5-22.5 0-12.426-10.074-22.5-22.5-22.5s-22.5 10.074-22.5 22.5c0 12.427 10.074 22.5 22.5 22.5Zm0 22.5c24.853 0 45-20.147 45-45s-20.147-45-45-45-45 20.147-45 45 20.147 45 45 45Z" clip-rule="evenodd"/><path fill="#FBBC04" fill-rule="evenodd" d="M172.5 201.5c0 12.427-10.073 22.5-22.5 22.5-12.426 0-22.5-10.073-22.5-22.5 0-12.426 10.074-22.5 22.5-22.5 12.427 0 22.5 10.074 22.5 22.5Zm22.5 0c0 24.853-20.147 45-45 45a44.793 44.793 0 0 1-22.5-6.02V201.5c0-6.213-5.037-11.25-11.25-11.25-6.189 0-11.211 4.998-11.25 11.178.039-24.82 20.172-44.928 45-44.928 24.853 0 45 20.147 45 45Zm-90-.072v63.822c0 6.213 5.037 11.25 11.25 11.25s11.25-5.037 11.25-11.25v-24.77c-13.45-7.781-22.5-22.324-22.5-38.98v-.072Z" clip-rule="evenodd"/><path fill="#4285F4" fill-rule="evenodd" d="M172.5 201.5c0-12.426-10.074-22.5-22.5-22.5v-22.5c24.853 0 45 20.147 45 45s-20.147 45-45 45V224c12.426 0 22.5-10.073 22.5-22.5Z" clip-rule="evenodd"/><path fill="#34A853" fill-rule="evenodd" d="M150 224c12.426 0 22.5-10.073 22.5-22.5H195c0 24.853-20.147 45-45 45V224Z" clip-rule="evenodd"/><path fill="#EA4335" fill-rule="evenodd" d="M150 179c-12.426 0-22.5 10.074-22.5 22.5H105c0-24.853 20.147-45 45-45V179Z" clip-rule="evenodd"/></svg>