<svg xmlns="http://www.w3.org/2000/svg" width="173" height="32" fill="none">
  <path fill="#FF9500" fill-rule="evenodd" d="M12 18a6 6 0 1 0 0-12 6 6 0 0 0 0 12Zm0 6c6.628 0 12-5.373 12-12S18.628 0 12 0C5.373 0 0 5.373 0 12s5.373 12 12 12Z" clip-rule="evenodd"/>
  <path fill="#FBBC04" fill-rule="evenodd" d="M18 12a6 6 0 1 1-12 0 6 6 0 0 1 12 0Zm6 0c0 6.627-5.372 12-12 12-2.186 0-4.235-.584-6-1.605V12a3 3 0 0 0-6-.02C.01 5.363 5.38 0 12 0c6.628 0 12 5.373 12 12Zm-24-.02V29a3 3 0 1 0 6 0v-6.605A11.995 11.995 0 0 1 0 11.98Z" clip-rule="evenodd"/>
  <path fill="#4285F4" fill-rule="evenodd" d="M18 12a6 6 0 0 0-6-6V0c6.627 0 12 5.373 12 12s-5.373 12-12 12v-6a6 6 0 0 0 6-6Z" clip-rule="evenodd"/>
  <path fill="#34A853" fill-rule="evenodd" d="M12 18a6 6 0 0 0 6-6h6c0 6.627-5.373 12-12 12v-6Z" clip-rule="evenodd"/>
  <path fill="#EA4335" fill-rule="evenodd" d="M12 6a6 6 0 0 0-6 6H0C0 5.373 5.373 0 12 0v6Z" clip-rule="evenodd"/>
  <path fill="#fff" d="M80.144 9.362v3.845h5.681v2.07h-5.68v3.845h6.305v2.108h-8.511V7.254h8.51v2.108h-6.305ZM90.78 16.37l-3.299-4.705H90l2.069 3.026h.058l1.933-3.026h2.615l-3.338 4.705 3.397 4.86h-2.577l-2.069-3.123h-.058l-2.05 3.123h-2.557l3.357-4.86Zm7.129-4.705h2.05v1.23h.116c.261-.416.658-.774 1.191-1.073.534-.313 1.171-.469 1.913-.469.612 0 1.191.13 1.737.39.56.248 1.048.6 1.464 1.055.417.455.749.995.996 1.62.247.612.371 1.288.371 2.03 0 .742-.124 1.425-.371 2.05a5.263 5.263 0 0 1-.996 1.6 4.575 4.575 0 0 1-1.464 1.074 4.163 4.163 0 0 1-1.737.37c-.742 0-1.379-.149-1.913-.448-.533-.313-.93-.677-1.191-1.093h-.117l.117 1.327v4.119h-2.166V11.665Zm4.86 7.867c.365 0 .716-.071 1.054-.215.352-.143.651-.344.898-.605.26-.273.469-.598.625-.976.156-.377.234-.807.234-1.288 0-.482-.078-.911-.234-1.288a2.906 2.906 0 0 0-.625-.957 2.423 2.423 0 0 0-.898-.625 2.676 2.676 0 0 0-1.054-.214c-.377 0-.735.071-1.073.214a2.794 2.794 0 0 0-.898.606c-.248.26-.449.585-.606.976a3.347 3.347 0 0 0-.234 1.288c0 .481.078.917.234 1.308.157.377.358.696.606.956.26.26.559.462.898.605.338.144.696.215 1.073.215Zm15.48-.585a5.197 5.197 0 0 1-1.718 1.854c-.742.495-1.653.742-2.733.742a5.264 5.264 0 0 1-1.991-.371 4.851 4.851 0 0 1-1.562-1.074 4.916 4.916 0 0 1-1.034-1.6 5.506 5.506 0 0 1-.371-2.05c0-.69.117-1.34.351-1.952.234-.625.56-1.165.976-1.62.43-.469.944-.84 1.542-1.113a4.742 4.742 0 0 1 1.991-.41c.742 0 1.399.124 1.972.371.586.247 1.08.592 1.483 1.035a4.4 4.4 0 0 1 .918 1.6c.221.625.332 1.308.332 2.05v.176a.91.91 0 0 0-.02.175.641.641 0 0 0-.019.156h-7.359c.039.456.149.853.331 1.191.183.339.404.618.664.84.273.22.573.383.898.488.325.104.644.156.957.156.624 0 1.138-.15 1.542-.45.403-.299.735-.67.995-1.112l1.855.918Zm-2.011-3.69a2.386 2.386 0 0 0-.195-.644 1.721 1.721 0 0 0-.449-.664 2.352 2.352 0 0 0-.781-.527c-.312-.143-.696-.215-1.152-.215-.624 0-1.164.19-1.62.567-.442.364-.742.859-.898 1.483h5.095Zm3.805-3.592h2.049v1.445h.117c.117-.247.274-.475.469-.683.208-.221.436-.404.683-.547.26-.156.527-.273.8-.351a2.71 2.71 0 0 1 .82-.137c.313 0 .579.026.801.078.221.052.423.124.605.215l-.625 2.01a1.783 1.783 0 0 0-.488-.136 2.829 2.829 0 0 0-.625-.059c-.351 0-.676.072-.976.215-.286.143-.54.338-.761.586-.221.247-.397.54-.527.878a3.262 3.262 0 0 0-.176 1.074v4.977h-2.166v-9.565Zm8.76-1.698a1.432 1.432 0 0 1-1.464-1.464 1.432 1.432 0 0 1 1.464-1.464c.403 0 .741.143 1.015.43.286.286.429.63.429 1.034s-.143.748-.429 1.035c-.274.286-.612.43-1.015.43Zm-1.093 11.263v-9.565h2.166v9.566h-2.166Zm13.281-2.283a5.197 5.197 0 0 1-1.718 1.854c-.741.495-1.653.742-2.732.742a5.262 5.262 0 0 1-1.992-.371 4.851 4.851 0 0 1-1.562-1.074 4.916 4.916 0 0 1-1.034-1.6 5.526 5.526 0 0 1-.371-2.05c0-.69.117-1.34.351-1.952.235-.625.56-1.165.976-1.62.43-.469.944-.84 1.543-1.113a4.735 4.735 0 0 1 1.991-.41c.742 0 1.399.124 1.972.371a4.181 4.181 0 0 1 1.483 1.035c.403.442.709.976.918 1.6a6.13 6.13 0 0 1 .331 2.05v.176a.903.903 0 0 0-.019.175.597.597 0 0 0-.02.156h-7.359c.039.456.149.853.332 1.191.181.339.403.618.664.84.273.22.572.383.898.488.325.104.644.156.956.156.625 0 1.138-.15 1.542-.45.403-.299.735-.67.996-1.112l1.854.918Zm-2.01-3.69a2.428 2.428 0 0 0-.196-.644 1.721 1.721 0 0 0-.449-.664 2.347 2.347 0 0 0-.78-.527c-.313-.143-.697-.215-1.152-.215-.625 0-1.165.19-1.62.567-.443.364-.742.859-.898 1.483h5.095Zm5.854-2.303h.117c.286-.456.689-.833 1.21-1.132a3.487 3.487 0 0 1 1.796-.469c1.21 0 2.114.364 2.713 1.093.599.716.898 1.672.898 2.87v5.914h-2.166V15.61c0-.833-.196-1.412-.586-1.738-.378-.338-.878-.507-1.503-.507-.378 0-.71.078-.996.234-.287.156-.534.37-.741.644-.209.26-.365.566-.469.918a3.634 3.634 0 0 0-.156 1.073v4.997h-2.167v-9.565h2.05v1.289Zm17.678 5.836c-.183.378-.41.736-.684 1.074-.26.325-.573.618-.937.878a4.306 4.306 0 0 1-1.229.586 5.263 5.263 0 0 1-1.543.215 5.314 5.314 0 0 1-2.01-.371 4.785 4.785 0 0 1-1.581-1.074 4.872 4.872 0 0 1-1.035-1.62 5.472 5.472 0 0 1-.371-2.03c0-.729.124-1.405.371-2.03a4.872 4.872 0 0 1 1.035-1.62 4.548 4.548 0 0 1 1.581-1.055 5.08 5.08 0 0 1 2.01-.39c.56 0 1.067.072 1.523.215.469.143.879.345 1.23.605.364.247.676.54.937.878.26.326.468.67.625 1.035l-1.992.84c-.221-.495-.527-.88-.917-1.152-.39-.274-.885-.41-1.484-.41-.364 0-.715.078-1.054.234a2.72 2.72 0 0 0-.878.625c-.247.26-.449.579-.605.956-.144.377-.215.8-.215 1.269 0 .468.071.891.215 1.269.156.377.358.703.605.976.26.26.553.468.878.624.339.144.69.215 1.054.215.599 0 1.106-.137 1.523-.41a2.84 2.84 0 0 0 .996-1.171l1.952.84Zm10.332.157a5.188 5.188 0 0 1-1.718 1.854c-.742.495-1.652.742-2.733.742a5.268 5.268 0 0 1-1.991-.371 4.873 4.873 0 0 1-1.562-1.074 4.933 4.933 0 0 1-1.034-1.6 5.526 5.526 0 0 1-.371-2.05c0-.69.117-1.34.351-1.952a4.981 4.981 0 0 1 .976-1.62c.43-.469.944-.84 1.542-1.113.6-.273 1.263-.41 1.992-.41.741 0 1.399.124 1.971.371a4.167 4.167 0 0 1 1.484 1.035c.404.442.709.976.917 1.6a6.08 6.08 0 0 1 .332 2.05v.176a.91.91 0 0 0-.02.175.694.694 0 0 0-.019.156h-7.359c.039.456.15.853.332 1.191.182.339.404.618.663.84.274.22.573.383.898.488.326.104.644.156.957.156.624 0 1.139-.15 1.542-.45.404-.299.736-.67.995-1.112l1.855.918Zm-2.011-3.69a2.35 2.35 0 0 0-.195-.644 1.71 1.71 0 0 0-.449-.664 2.342 2.342 0 0 0-.781-.527c-.312-.143-.696-.215-1.151-.215-.625 0-1.165.19-1.621.567-.442.364-.741.859-.898 1.483h5.095ZM36 21.23V7.254h4.92c.663 0 1.281.11 1.854.332a4.45 4.45 0 0 1 1.522.898c.43.39.768.858 1.015 1.405.248.534.371 1.126.371 1.776 0 .664-.123 1.27-.37 1.816a4.291 4.291 0 0 1-1.016 1.386 4.71 4.71 0 0 1-1.522.917 5.384 5.384 0 0 1-1.855.313h-2.284v5.133H36Zm4.958-7.632c.69 0 1.21-.195 1.562-.586.351-.39.527-.84.527-1.347 0-.247-.046-.488-.137-.722a1.432 1.432 0 0 0-.39-.605 1.75 1.75 0 0 0-.644-.43 2.462 2.462 0 0 0-.918-.156h-2.323v3.846h2.323Zm7.707-3.319a1.82 1.82 0 0 1-.644-.117 2.071 2.071 0 0 1-.527-.351 2.075 2.075 0 0 1-.352-.527 1.72 1.72 0 0 1-.117-.644c0-.235.04-.45.117-.644a1.77 1.77 0 0 1 .352-.508 1.56 1.56 0 0 1 .527-.351c.208-.091.423-.137.644-.137.455 0 .846.163 1.171.488.325.312.488.696.488 1.152 0 .455-.163.846-.488 1.171a1.631 1.631 0 0 1-1.171.469ZM47.396 21.23v-9.565h2.557v9.566h-2.557Zm7.277-4.86-3.28-4.705h3.026l1.738 2.655h.136l1.64-2.655h3.123L57.7 16.37l3.357 4.86H58.05l-1.796-2.732h-.136L54.38 21.23h-3.025l3.318-4.86Zm16.417 2.557a5.327 5.327 0 0 1-1.796 1.893c-.741.482-1.652.723-2.733.723a5.468 5.468 0 0 1-2.03-.371 5.017 5.017 0 0 1-1.6-1.074 5.017 5.017 0 0 1-1.074-1.6 5.522 5.522 0 0 1-.37-2.05c0-.69.123-1.34.37-1.952a4.867 4.867 0 0 1 1.035-1.62c.442-.469.963-.84 1.561-1.113a4.872 4.872 0 0 1 2.01-.41c.769 0 1.452.13 2.05.39.6.248 1.1.6 1.504 1.055.403.442.709.97.917 1.58.208.612.313 1.276.313 1.992v.234c-.013.078-.02.15-.02.215-.013.065-.02.137-.02.215h-7.203c.052.39.156.728.313 1.015.169.273.37.507.605.702.247.183.514.32.8.41.286.078.58.117.879.117.585 0 1.067-.13 1.444-.39.39-.273.696-.612.918-1.015l2.127 1.054Zm-2.323-3.709a1.556 1.556 0 0 0-.175-.566 1.785 1.785 0 0 0-.43-.586 2.106 2.106 0 0 0-.703-.449c-.273-.117-.605-.175-.995-.175-.547 0-1.028.156-1.445.468-.416.313-.709.749-.878 1.308h4.626Zm4.113 6.012V7.254h2.557V21.23H72.88Z"/>
</svg>